<?xml version="1.0" encoding="UTF-8"?>
<!-- Created with Inkscape (http://www.inkscape.org/) -->
<svg width="75.142mm" height="94.897mm" version="1.1" viewBox="0 0 75.142 94.897" xml:space="preserve" xmlns="http://www.w3.org/2000/svg"><g transform="translate(-.15143 -.10302)" stroke-width=".26458px"><path d="m41.292 5.0579 29.352 5.1408 0.995 28.109-4.3946 19.817-7.96 17.081-12.686 12.272z" fill="#262f40" stroke="#262f40"/><path d="m4.975 10.116 36.898-6.3845 4.975 83.662-9.2037 4.0629-14.096-8.2087-12.52-16.003-5.3896-17.993-2.4875-21.309z" fill="#151922" stroke="#151922"/></g><g transform="translate(-.15143 -.10302)"><path d="m26.208 25.299 1.0847-0.08795 2.0521-0.9674 1.9055-0.61562 1.6123-0.41041 0.99672-0.46904 2.3159-0.20521 1.6417-0.67425 1.4951-0.26384 1.2312-0.14658 1.7296-0.05863 0.64494-1.2899c-3.4291-6.5445 5.9493-11.083 7.7979-2.9315l-0.32247 0.32247 0.08795 1.3778 0.26384 0.29315 0.02932 0.67425-1.026 0.05863h0.35178l-0.32247 1.114-0.67425 0.7622-0.14658 0.90877-1.2312 0.11726-0.87946-0.70357 1.2019 0.90878 1.0554 0.43973 1.4951 0.11726 1.026 0.43973 1.3485 1.0847 0.32247 0.52768 0.11726 2.2573 0.82083 2.6677 1.0554 3.254 0.02932 1.9934-1.4364 3.4592-1.8469 2.2573-1.9934 0.67425h-1.1726l-1.1726-1.7296-0.32247-1.3778 0.46904-1.0554 0.93809-0.70357 0.82083 0.08795 0.52768 0.55699h0.85014l0.17589-0.58631-0.23452-1.9348-1.2019-3.6937s-3.3126 4.7784-5.5406 10.876l-1.1433 3.4885s7.9151 7.1822 8.2376 8.7066l0.02932 2.0521s-3.7817 8.0324-2.0521 14.54l0.14657 0.82083 2.2866 2.0814-0.02932 0.41041 2.228 1.6417 0.08795 1.3778-0.26384 0.41041-0.61562 0.43973-4.7198 0.14658-1.3192-0.90877-0.08795-0.70357-0.90877-0.3811-2.4625-1.2312-0.11726-0.64494 0.73288-1.4071 0.23452-1.3778 0.43973-0.70357 0.55699-0.20521s-0.23452-6.6839-1.7003-9.9086c0 0-0.23452-2.1693 1.671-4.5439l-3.3713-2.3159-0.93809 0.73288h-0.61562l-1.2019-1.0847-2.4039 3.2833-0.55699 0.43973-0.90877 0.08795-1.114 2.9022-0.35178 0.64494-0.46904 0.26384s-6.2735 2.9022-9.8499 8.4428l0.73288 2.9902-0.52768 0.17589 0.90878 1.671v2.0814l-1.671 0.17589-2.1693-1.1726-1.5244-2.1693 0.02932-1.1433-1.671-2.6384 0.08795-0.93809 0.82083-0.90877h0.93809l1.0847-0.61562 0.43973-0.05863s4.3973-5.5113 5.0422-7.8272c0 0 0.93808-1.2899 3.6351-1.5244l0.55699-3.0781-0.93809-0.85014s2.6677-5.7458 2.2573-7.0943c0 0-2.0228-4.8663 2.697-7.2409 0 0 1.1433-1.2899-0.23452-10.084l-0.7622-0.73288-1.7589 0.43973-2.228 0.02932-0.11726 1.2606-1.7589 3.4299-0.11726 2.2573 0.93809 1.9641 0.05863 1.4658-0.93809 1.2019-1.114 0.08795-1.3778-0.46904-1.5244-0.7622v-2.14l0.46904-0.82083s0.85014-11.873 2.3159-11.785z" fill="#f26c22" stroke="#0c1e24" stroke-width=".26458px"/><path d="m31.895 47.432s-0.41041 1.0847 6.508 5.4526l-2.3452 3.6644-2.9315-0.49836-2.2866-2.1693 1.7589-5.2474z" fill="#151922" stroke="#0c1e24" stroke-width=".26458px"/><g fill="none" stroke="#0c1e24" stroke-width=".26458px"><path d="m40.953 53.882s-0.11726-1.9348 3.8989-4.5732"/><path d="m30.371 55.113 2.1986 1.7296s3.3126-0.20521 2.9022 0.96741"/><path d="m21.078 67.689s-0.49836 2.2573 1.9934 2.0228"/><path d="m19.671 68.363-0.26384 1.0554 1.3778 2.9022 0.05863 1.7589 0.99672 1.2019 0.90878 0.67425"/><path d="m45.761 71.647 0.20521 0.82083 0.52768 0.14658 1.1726-0.35178 0.82083-0.43973"/><path d="m44.325 73.347 0.82083 0.85014 1.5537 1.2312 0.82083 0.46904 1.6123 1.4658 1.0847 0.11726"/></g><g stroke-width=".26458px"><path d="m49.074 38.755 0.3811 0.29315-0.35178 0.32247-0.3811-0.32247z" fill="#0c1e24" stroke="#0c1e24"/><path d="m26.794 39.37 0.32247-0.26384 0.14658 0.32247-0.23452 0.14658z" fill="#0c1e24" stroke="#0c1e24"/><path d="m37.52 90.399c-40.712-15.339-31.798-79.289-31.798-79.289l-3.3996-3.8971s-12.172 71.117 35.202 87.182z" fill="#d95b18" stroke="#d95b18"/></g><g fill="#f26c22" stroke="#f26c22"><path d="m37.764 90.399c41.038-15.339 32.094-79.287 32.094-79.287l3.4268-3.897s12.207 71.136-35.546 87.201z" stroke-width=".26564px"/><path d="m5.8694 10.978-3.3314-3.925s21.965 0.59466 35.084-6.5507l-0.0175 4.282s-9.2804 6.1937-31.618 6.1937z" stroke-width=".26151px"/><path transform="matrix(-1.0061 0 0 .99989 75.659 -.026482)" d="m5.8854 11.066-3.3181-3.9543s21.878 0.56534 34.996-6.5801l0.04113 4.2527s-9.3818 6.2817-31.719 6.2817z" stroke-width=".26151px"/></g><path d="m37.63 94.71c48.387-16.169 35.823-87.87 35.841-87.87-9.0058 0.051695-24.854-0.85608-35.737-6.6955-4.7391 2.5519-14.65 6.6348-35.613 6.6748 0.0079323-0.015865-12.54 71.638 35.509 87.891z" fill="none" stroke="#151922" stroke-width=".26458px"/></g></svg>
