<?xml version="1.0" encoding="UTF-8" standalone="no"?>
<!-- Created with Inkscape (http://www.inkscape.org/) -->

<svg
   width="175.15416mm"
   height="189.44167mm"
   viewBox="0 0 175.15416 189.44167"
   version="1.1"
   id="svg1"
   xml:space="preserve"
   inkscape:version="1.3.2 (091e20e, 2023-11-25, custom)"
   sodipodi:docname="logo2-project.svg"
   xmlns:inkscape="http://www.inkscape.org/namespaces/inkscape"
   xmlns:sodipodi="http://sodipodi.sourceforge.net/DTD/sodipodi-0.dtd"
   xmlns:xlink="http://www.w3.org/1999/xlink"
   xmlns="http://www.w3.org/2000/svg"
   xmlns:svg="http://www.w3.org/2000/svg"><sodipodi:namedview
     id="namedview1"
     pagecolor="#ffffff"
     bordercolor="#000000"
     borderopacity="0.25"
     inkscape:showpageshadow="2"
     inkscape:pageopacity="0.0"
     inkscape:pagecheckerboard="0"
     inkscape:deskcolor="#d1d1d1"
     inkscape:document-units="mm"
     inkscape:zoom="1"
     inkscape:cx="460"
     inkscape:cy="409.5"
     inkscape:window-width="2560"
     inkscape:window-height="1377"
     inkscape:window-x="1912"
     inkscape:window-y="-8"
     inkscape:window-maximized="1"
     inkscape:current-layer="layer2"
     showgrid="false" /><defs
     id="defs1"><linearGradient
       id="linearGradient14"
       inkscape:collect="always"><stop
         style="stop-color:#fa6701;stop-opacity:1;"
         offset="0.41624576"
         id="stop14" /><stop
         style="stop-color:#fa6701;stop-opacity:0;"
         offset="1"
         id="stop15" /></linearGradient><linearGradient
       id="swatch16"><stop
         style="stop-color:#000000;stop-opacity:1;"
         offset="0"
         id="stop16" /></linearGradient><linearGradient
       id="linearGradient1"
       inkscape:swatch="gradient"><stop
         style="stop-color:#000000;stop-opacity:1;"
         offset="0"
         id="stop1" /><stop
         style="stop-color:#000000;stop-opacity:0;"
         offset="1"
         id="stop2" /></linearGradient><linearGradient
       inkscape:collect="always"
       xlink:href="#linearGradient14"
       id="linearGradient15"
       x1="62.28458"
       y1="545.30408"
       x2="690.31866"
       y2="-1.6959571"
       gradientUnits="userSpaceOnUse"
       spreadMethod="pad" /></defs><g
     inkscape:groupmode="layer"
     id="layer2"
     inkscape:label="Слой 2"
     style="display:inline;fill:none;fill-opacity:1;stroke-width:0.709083;stroke-dasharray:none"
     transform="translate(31.960981,28.0633)"><path
       id="path9-3"
       style="display:inline;fill:none;fill-opacity:1;stroke:#1f2937;stroke-width:1.5875;stroke-linecap:round;stroke-linejoin:round;stroke-dasharray:none;stroke-opacity:1;paint-order:normal"
       d="M 137.95117,3.2697532 137.89564,35.106887 124.4483,50.990441 124.24284,11.961173 C 46.819345,-30.918173 -9.4523508,11.605555 -12.148828,11.734373 -11.378593,30.777032 -22.805509,97.380722 55.970175,144.38973 55.833789,145.34396 101.04239,119.7594 114.87111,82.337726 111.17383,92.236729 61.329614,131.43462 56.759123,132.81688 36.372903,121.63981 17.733018,89.772576 22.666187,90.582376 33.448032,98.640948 44.692662,106.33809 56.853659,112.68902 87.160821,92.314918 95.749468,90.809941 136.83629,45.812381 129.18478,129.59519 57.053216,158.6723 56.108384,159.89555 -39.869548,107.45315 -24.412632,14.72272 -25.531494,3.7698904 -9.9397796,-3.3998674 51.505611,-49.008314 137.95117,3.2697532 Z M 69.413298,69.822397 90.536132,69.887247 C 123.83789,66.300073 117.78419,17.748059 87.03666,20.196304 m 2.853999,15.886847 c 11.433581,3.929078 8.21736,17.612563 0.06419,18.855929 l -20.702312,0.131047 -0.08174,-11.447175 -15.610661,0.149756 0.04643,58.507212 15.856727,-8.820106 -0.049,-23.589623 M 87.042857,20.196305 -1.15779,19.920697 -1.433398,35.90594 27.505404,36.181548 27.732375,83.407731 43.929726,95.892984 43.685531,35.79178 89.857409,36.08613"
       sodipodi:nodetypes="ccccccccccccccccccccccccccccccccc" /><path
       id="path9"
       style="opacity:1;fill:url(#linearGradient15);fill-opacity:1;fill-rule:evenodd;stroke:none;stroke-width:6;stroke-linecap:round;stroke-linejoin:round;stroke-dasharray:none;stroke-opacity:1"
       d="M 318.5,698.81862 C 166.51366,610.62158 72.409435,483.53223 39.111712,321.5 27.837643,266.63852 24.026191,203.51233 27.555535,130.10384 l -0.106503,-7.94035 25.594377,-13.90804 C 77.492425,94.969802 98.379043,84.432023 119.14374,75.121729 158.23233,57.595531 192.87983,46.676025 231.65081,38.466505 258.07984,32.870316 287.79063,29.00809 314.68544,28.199617 l 13.99134,-0.420588 0.0911,23.869248 0.003,24.178606 -22.84413,1.129522 C 265.61871,78.94941 244.14114,82.22605 211.67926,90.487091 168.7689,101.40711 135.47566,114.65931 90.866084,138.57617 l -18.854886,10.47648 -0.07219,18.09082 -0.440817,18.63979 c -1.158178,48.97315 0.895522,85.30838 6.082504,118.71674 20.946467,134.91219 94.910835,245.02287 221.285465,329.42744 10.79861,7.2123 22.66348,14.90412 26.36637,17.09292 l 7.13028,4.11222 -0.0267,25.70581 c 0.01,14.1625 0.30275,26.02842 0.16522,25.9906 -0.1375,-0.0378 -6.8513,-3.86125 -14.0013,-8.01037 z m 7.92726,-317.7872 c -0.26865,-58.19639 -0.37109,-106.41511 -0.22765,-106.55856 0.14345,-0.14345 12.04265,0.0182 26.44266,-0.23492 l 26.62377,-0.28347 0.1223,20.5308 c 0.0729,12.24492 0.55096,21.38053 0.97464,21.90082 0.55982,0.68746 9.23018,0.56463 37.62371,0.53003 42.78236,-0.0521 46.18511,-0.10698 52.53711,-3.23405 4.4623,-2.19679 9.65557,-6.03597 12.95166,-10.82124 l 2.52787,-3.66996 22.40644,13.04707 c 12.17198,7.08763 18.76509,11.58881 23.35722,13.99209 -2.3319,3.72952 -1.607,3.70557 -6.52639,9.54096 -10.35597,12.28427 -18.88455,19.50466 -37.98089,26.05586 -3.25448,1.11648 -12.88472,4.7069 -24.37182,5.30183 -7.90771,0.40955 -19.68448,0.21496 -37.07702,-0.0542 -23.72344,0.001 -44.0174,0.17133 -44.50354,0.48596 -0.69157,0.44759 -0.88602,10.29388 -0.89372,45.25484 l -0.01,44.68277 -26.38287,14.67246 c -14.51057,8.06986 -27.42926,15.29119 -27.6279,15.29119 -0.19864,0 0.30292,-48.23394 0.0343,-106.43032 z m 6.70842,222.4274 c -37.19086,-21.67456 -80.85526,-67.57913 -110.81675,-116.99007 -3.50215,-5.77556 -8.10639,-13.5943 -11.21199,-20.27726 -3.11088,-6.69434 -4.72015,-12.24946 -4.72015,-13.97146 0,-0.39956 4.78181,3.42972 10.51821,7.64527 28.23494,20.74915 58.74789,41.13232 84.32249,56.32886 14.02231,8.33212 33.20568,18.73212 34.5524,18.73212 0.53392,0 7.8538,-4.56375 16.26642,-10.14167 8.41261,-5.57792 22.61422,-14.85674 31.55912,-20.61961 54.72028,-35.25423 73.53778,-48.29018 99.17865,-68.70668 37.59242,-29.93294 84.11062,-74.84689 138.83462,-134.04671 10.7731,-11.65421 12.48561,-14.2759 12.6846,-12.40397 0.32512,3.05834 -4.57566,32.63147 -7.72863,48.27313 -8.18661,40.61317 -20.6421,79.41504 -36.74514,113.14731 l -4.60492,9.64628 -16.78127,-13.29734 -16.68752,-13.2036 3.07572,-7.65182 c 3.43952,-8.55693 3.67959,-10.12343 1.71272,-11.17606 -2.13138,-1.14068 -3.76478,0.59436 -6.1335,5.03852 -10.56186,19.81608 -63.35272,68.88386 -134.98553,126.18775 -29.68107,23.74388 -59.97286,46.43713 -73.20831,54.84438 -6.41852,4.07709 -6.32084,4.25137 -9.08124,2.64263 z"
       transform="matrix(0.26458333,0,0,0.26458333,-31.960981,-28.0633)" /><path
       id="path14"
       style="opacity:1;fill:#fef6e4;fill-opacity:1;fill-rule:evenodd;stroke:none;stroke-width:6;stroke-linecap:round;stroke-linejoin:round;stroke-dasharray:none;stroke-opacity:1"
       d="m 332.2425,655.07452 c 11.30493,-5.72777 41.34752,-22.23254 64.38471,-40.82983 63.97106,-51.64209 117.34671,-106.65528 146.8325,-163.87823 l 8.05564,-15.63353 16.24232,12.87881 c 8.93328,7.08334 17.12621,11.987 17.12621,12.6255 0,1.5267 -11.7165,23.08812 -19.20839,35.76276 -50.03353,84.64578 -134.10602,165.49557 -233.1275,210.91421 -0.2903,-22.17377 -0.11244,-50.98394 -0.30549,-51.83969 z M 256,440.9659 229.5,420.50253 228.88037,401.75127 c -0.3408,-10.3132 -0.6783,-50.49877 -0.75,-89.30127 -0.0987,-53.3913 -0.42223,-70.84186 -1.33037,-71.75 -0.88431,-0.88431 -9.78639,-1.2 -33.83876,-1.2 -17.95132,0 -41.98105,-0.38023 -53.4875,-0.46308 l -20.91124,-0.15057 0.21888,-27.53692 0.40638,-27.16193 78.59362,0.43719 c 43.29462,0.24083 123.61755,0.52603 178.34362,0.5 l 86.31166,-0.0411 13.00084,1.29137 10.01731,2.97555 c 14.37378,4.2696 20.73305,8.46574 31.7311,19.46195 18.19029,18.18725 27.58152,41.38812 27.58152,69 0,13.58828 -1.78024,24.86304 -6.791,36.18091 -2.86612,6.47373 -2.4673,6.34785 -6.1887,12.21713 -11.46623,-6.64397 -11.21314,-6.79237 -22.42013,-13.38787 -12.23672,-7.20151 -23.25258,-13.56537 -23.41755,-13.68472 -0.16497,-0.11936 1.94017,-3.26953 3.15031,-6.77123 3.02838,-8.76299 2.97131,-20.15691 -0.14209,-28.36672 -2.91352,-7.68278 -12.8289,-17.8671 -21.21159,-21.78694 L 461.61836,239.6477 372.74668,239.26133 283.5,239 l 0.18538,111.25 c 0.10197,61.1875 -0.12303,111.23409 -0.5,111.21463 C 282.80842,461.44518 270.575,452.22075 256,440.9659 Z M 593.84201,220.03747 C 593.546,159.91393 593.29825,150.37392 592,149.108 c -0.825,-0.80444 -8.025,-4.84872 -16,-8.98728 C 515.67003,108.81298 451.81562,88.12033 390.5,80.007614 380.43728,78.676207 366.04515,76.702799 340.19194,76.170867 l -11.60615,-0.238798 0.0884,-24.443904 V 27.928143 l 16.57583,0.02443 c 34.30099,0.05055 58.53734,4.095032 87.25,9.671614 C 498.5512,50.452671 566.79089,77.4376 633.2303,116.62054 l 5.73029,3.37946 0.0197,58.79499 0.0197,58.79499 -21.53628,25.41841 c -11.84495,13.98013 -21.92854,25.66085 -22.40798,25.95716 -0.49118,0.30357 -1.02102,-29.78599 -1.21373,-68.92808 z"
       transform="matrix(0.26458333,0,0,0.26458333,-31.960981,-28.0633)" /></g></svg>
