<?xml version="1.0" encoding="UTF-8"?>
<!-- Created with Inkscape (http://www.inkscape.org/) -->
<svg width="175.15mm" height="189.44mm" version="1.1" viewBox="0 0 175.15 189.44" xml:space="preserve" xmlns="http://www.w3.org/2000/svg" xmlns:xlink="http://www.w3.org/1999/xlink"><defs><linearGradient id="linearGradient15" x1="62.285" x2="690.32" y1="545.3" y2="-1.696" gradientUnits="userSpaceOnUse"><stop stop-color="#fa6701" offset=".41625"/><stop stop-color="#fa6701" stop-opacity="0" offset="1"/></linearGradient></defs><g transform="translate(31.961 28.063)" stroke-width=".70908"><path d="m137.95 3.2698-0.05553 31.837-13.447 15.884-0.20546-39.029c-77.423-42.879-133.7-0.35562-136.39-0.2268 0.77024 19.043-10.657 85.646 68.119 132.66-0.13639 0.95423 45.072-24.63 58.901-62.052-3.6973 9.899-53.541 49.097-58.112 50.479-20.386-11.177-39.026-43.044-34.093-42.235 10.782 8.0586 22.026 15.756 34.187 22.107 30.307-20.374 38.896-21.879 79.983-66.877-7.6515 83.783-79.783 112.86-80.728 114.08-95.978-52.442-80.521-145.17-81.64-156.13 15.592-7.1698 77.037-52.778 163.48-0.50014zm-68.538 66.553 21.123 0.06485c33.302-3.5872 27.248-52.139-3.4995-49.691m2.854 15.887c11.434 3.9291 8.2174 17.613 0.06419 18.856l-20.702 0.13105-0.08174-11.447-15.611 0.14976 0.04643 58.507 15.857-8.8201-0.049-23.59m17.629-49.674-88.201-0.27561-0.27561 15.985 28.939 0.27561 0.22697 47.226 16.197 12.485-0.2442-60.101 46.172 0.29435" fill="none" stroke="#1f2937" stroke-linecap="round" stroke-linejoin="round" stroke-width="1.5875" style="paint-order:normal"/><path transform="matrix(.26458 0 0 .26458 -31.961 -28.063)" d="m318.5 698.82c-151.99-88.197-246.09-215.29-279.39-377.32-11.274-54.861-15.086-117.99-11.556-191.4l-0.1065-7.9404 25.594-13.908c24.449-13.286 45.336-23.823 66.1-33.134 39.089-17.526 73.736-28.446 112.51-36.655 26.429-5.5962 56.14-9.4584 83.035-10.267l13.991-0.42059 0.0911 23.869 3e-3 24.179-22.844 1.1295c-40.308 1.993-61.786 5.2696-94.247 13.531-42.91 10.92-76.204 24.172-120.81 48.089l-18.855 10.476-0.07219 18.091-0.44082 18.64c-1.1582 48.973 0.89552 85.308 6.0825 118.72 20.946 134.91 94.911 245.02 221.29 329.43 10.799 7.2123 22.663 14.904 26.366 17.093l7.1303 4.1122-0.0267 25.706c0.01 14.162 0.30275 26.028 0.16522 25.991-0.1375-0.0378-6.8513-3.8612-14.001-8.0104zm7.9273-317.79c-0.26865-58.196-0.37109-106.42-0.22765-106.56 0.14345-0.14345 12.043 0.0182 26.443-0.23492l26.624-0.28347 0.1223 20.531c0.0729 12.245 0.55096 21.381 0.97464 21.901 0.55982 0.68746 9.2302 0.56463 37.624 0.53003 42.782-0.0521 46.185-0.10698 52.537-3.234 4.4623-2.1968 9.6556-6.036 12.952-10.821l2.5279-3.67 22.406 13.047c12.172 7.0876 18.765 11.589 23.357 13.992-2.3319 3.7295-1.607 3.7056-6.5264 9.541-10.356 12.284-18.885 19.505-37.981 26.056-3.2545 1.1165-12.885 4.7069-24.372 5.3018-7.9077 0.40955-19.684 0.21496-37.077-0.0542-23.723 1e-3 -44.017 0.17133-44.504 0.48596-0.69157 0.44759-0.88602 10.294-0.89372 45.255l-0.01 44.683-26.383 14.672c-14.511 8.0699-27.429 15.291-27.628 15.291s0.30292-48.234 0.0343-106.43zm6.7084 222.43c-37.191-21.675-80.855-67.579-110.82-116.99-3.5022-5.7756-8.1064-13.594-11.212-20.277-3.1109-6.6943-4.7202-12.249-4.7202-13.971 0-0.39956 4.7818 3.4297 10.518 7.6453 28.235 20.749 58.748 41.132 84.322 56.329 14.022 8.3321 33.206 18.732 34.552 18.732 0.53392 0 7.8538-4.5638 16.266-10.142 8.4126-5.5779 22.614-14.857 31.559-20.62 54.72-35.254 73.538-48.29 99.179-68.707 37.592-29.933 84.111-74.847 138.83-134.05 10.773-11.654 12.486-14.276 12.685-12.404 0.32512 3.0583-4.5757 32.631-7.7286 48.273-8.1866 40.613-20.642 79.415-36.745 113.15l-4.6049 9.6463-16.781-13.297-16.688-13.204 3.0757-7.6518c3.4395-8.5569 3.6796-10.123 1.7127-11.176-2.1314-1.1407-3.7648 0.59436-6.1335 5.0385-10.562 19.816-63.353 68.884-134.99 126.19-29.681 23.744-59.973 46.437-73.208 54.844-6.4185 4.0771-6.3208 4.2514-9.0812 2.6426z" fill="url(#linearGradient15)" fill-rule="evenodd"/><path transform="matrix(.26458 0 0 .26458 -31.961 -28.063)" d="m332.24 655.07c11.305-5.7278 41.348-22.233 64.385-40.83 63.971-51.642 117.35-106.66 146.83-163.88l8.0556-15.634 16.242 12.879c8.9333 7.0833 17.126 11.987 17.126 12.626 0 1.5267-11.716 23.088-19.208 35.763-50.034 84.646-134.11 165.5-233.13 210.91-0.2903-22.174-0.11244-50.984-0.30549-51.84zm-76.242-214.11-26.5-20.463-0.61963-18.751c-0.3408-10.313-0.6783-50.499-0.75-89.301-0.0987-53.391-0.42223-70.842-1.3304-71.75-0.88431-0.88431-9.7864-1.2-33.839-1.2-17.951 0-41.981-0.38023-53.488-0.46308l-20.911-0.15057 0.21888-27.537 0.40638-27.162 78.594 0.43719c43.295 0.24083 123.62 0.52603 178.34 0.5l86.312-0.0411 13.001 1.2914 10.017 2.9756c14.374 4.2696 20.733 8.4657 31.731 19.462 18.19 18.187 27.582 41.388 27.582 69 0 13.588-1.7802 24.863-6.791 36.181-2.8661 6.4737-2.4673 6.3478-6.1887 12.217-11.466-6.644-11.213-6.7924-22.42-13.388-12.237-7.2015-23.253-13.565-23.418-13.685-0.16497-0.11936 1.9402-3.2695 3.1503-6.7712 3.0284-8.763 2.9713-20.157-0.14209-28.367-2.9135-7.6828-12.829-17.867-21.212-21.787l-6.1283-2.5653-88.872-0.38637-89.247-0.26133 0.18538 111.25c0.10197 61.188-0.12303 111.23-0.5 111.21-0.37696-0.01945-12.61-9.2439-27.185-20.499zm337.84-220.93c-0.29601-60.124-0.54376-69.664-1.842-70.929-0.825-0.80444-8.025-4.8487-16-8.9873-60.33-31.308-124.18-52-185.5-60.113-10.063-1.3314-24.455-3.3048-50.308-3.8367l-11.606-0.2388 0.0884-24.444v-23.56l16.576 0.02443c34.301 0.05055 58.537 4.095 87.25 9.6716 66.051 12.828 134.29 39.813 200.73 78.996l5.7303 3.3795 0.0394 117.59-21.536 25.418c-11.845 13.98-21.929 25.661-22.408 25.957-0.49118 0.30357-1.021-29.786-1.2137-68.928z" fill="#fef6e4" fill-rule="evenodd"/></g></svg>
